<svg height="560" width="80" xmlns="http://www.w3.org/2000/svg">
    <style>line, path, circle,rect,polygon {
                          stroke: rgba(60,60,60,255);
                          stroke-width: 2;
                          stroke-opacity: 1;
                          fill-opacity: 1;
                          stroke-linecap: round;
                          stroke-linejoin: miter;
                        }

                    text {
                        fill: rgba(60,60,60,255);
                        }
                        rect.backdrop{
                            stroke: none;
                            fill: rgba(255,255,255,255);
                        }
                        .broken{
                            stroke-dasharray: 8;
                        }
                        .filled{
                            fill: rgba(255,255,255,255);
                        }
                        .nofill{
                            fill: none;
                        }

                        text {
                         font-family: monospace;
                         font-size: 16px;
                        }
                        </style>
    <rect class="backdrop" height="560" width="80" x="0" y="0"></rect>
    <rect class="solid nofill" height="20" rx="0" width="20" x="5" y="70"></rect>
    <rect class="solid nofill" height="20" rx="5" width="20" x="5" y="130"></rect>
    <rect class="solid nofill" height="20" rx="0" width="30" x="5" y="190"></rect>
    <rect class="broken nofill" height="20" rx="0" width="30" x="5" y="250"></rect>
    <rect class="solid nofill" height="20" rx="5" width="30" x="5" y="310"></rect>
    <circle class="nofill" cx="15" cy="370" r="10"></circle>
    <text x="12.5" y="35">A</text>
    <g>
        <path class="nofill" d="M 20,410 A 10,10 0,0,0 12.5,415"></path>
        <line class="solid" x1="12.5" x2="10" y1="415" y2="420"></line>
        <line class="solid" x1="20" x2="50" y1="410" y2="410"></line>
        <path class="nofill" d="M 50,410 A 10,10 0,0,1 57.5,415"></path>
        <line class="solid" x1="57.5" x2="60" y1="415" y2="420"></line>
        <path class="nofill" d="M 10,420 A 20,20 0,0,0 10,440"></path>
        <path class="nofill" d="M 60,420 A 20,20 0,0,1 60,440"></path>
        <line class="solid" x1="10" x2="12.5" y1="440" y2="445"></line>
        <path class="nofill" d="M 12.5,445 A 10,10 0,0,0 20,450"></path>
        <line class="solid" x1="20" x2="50" y1="450" y2="450"></line>
        <line class="solid" x1="60" x2="57.5" y1="440" y2="445"></line>
        <path class="nofill" d="M 57.5,445 A 10,10 0,0,1 50,450"></path>
    </g>
    <line class="solid" x1="20" x2="40" y1="490" y2="490"></line>
    <line class="solid" x1="20" x2="40" y1="530" y2="530"></line>
    <polygon class="filled" points="40,525 50,530 40,535"></polygon>
</svg>